<?xml version="1.0" encoding="UTF-8" standalone="no"?>
<svg
   xmlns:dc="http://purl.org/dc/elements/1.1/"
   xmlns:cc="http://creativecommons.org/ns#"
   xmlns:rdf="http://www.w3.org/1999/02/22-rdf-syntax-ns#"
   xmlns:svg="http://www.w3.org/2000/svg"
   xmlns="http://www.w3.org/2000/svg"
   xmlns:sodipodi="http://sodipodi.sourceforge.net/DTD/sodipodi-0.dtd"
   xmlns:inkscape="http://www.inkscape.org/namespaces/inkscape"
   width="315mm"
   height="100mm"
   viewBox="0 0 315 100"
   version="1.1"
   id="svg8"
   inkscape:version="1.0.1 (3bc2e813f5, 2020-09-07)"
   sodipodi:docname="rysunek.svg">
  <defs
     id="defs2" />
  <sodipodi:namedview
     id="base"
     pagecolor="#ffffff"
     bordercolor="#666666"
     borderopacity="1.0"
     inkscape:pageopacity="0.0"
     inkscape:pageshadow="2"
     inkscape:zoom="0.7"
     inkscape:cx="711.73122"
     inkscape:cy="262.44316"
     inkscape:document-units="mm"
     inkscape:current-layer="layer1"
     inkscape:document-rotation="0"
     showgrid="false"
     inkscape:window-width="1920"
     inkscape:window-height="1027"
     inkscape:window-x="1912"
     inkscape:window-y="22"
     inkscape:window-maximized="1" />
  <metadata
     id="metadata5">
    <rdf:RDF>
      <cc:Work
         rdf:about="">
        <dc:format>image/svg+xml</dc:format>
        <dc:type
           rdf:resource="http://purl.org/dc/dcmitype/StillImage" />
        <dc:title></dc:title>
      </cc:Work>
    </rdf:RDF>
  </metadata>
  <g
     inkscape:label="Warstwa 1"
     inkscape:groupmode="layer"
     id="layer1">
    <path
       fill="#000000"
       d="m 46.603794,11.921008 -18.352527,13.15997 15.969674,4.851245 18.558784,-14.52122 -16.175931,-3.489828 z m 18.839071,5.182553 -19.682932,14.999759 8.515314,21.859697 1.422943,-1.243033 0.705302,-2.619125 a 3.0576431,2.1846024 76.863 0 1 -1.513982,-3.409794 3.0576431,2.1846024 76.863 0 1 1.833619,-2.288811 3.0576431,2.1846024 76.863 0 1 0.603592,0.08837 3.0576431,2.1846024 76.863 0 1 0.519056,0.257443 l 1.3239,-4.915439 a 1.5006428,1.5006428 0 0 1 0.05886,-0.173407 1.5006428,1.5006428 0 0 1 0.0097,-0.02134 1.5006428,1.5006428 0 0 1 0.05336,-0.114216 1.5006428,1.5006428 0 0 1 0.015,-0.02551 1.5006428,1.5006428 0 0 1 0.0617,-0.104212 1.5006428,1.5006428 0 0 1 0.08904,-0.120551 1.5006428,1.5006428 0 0 1 0.011,-0.01234 1.5006428,1.5006428 0 0 1 0.09004,-0.09904 1.5006428,1.5006428 0 0 1 0.108379,-0.09888 1.5006428,1.5006428 0 0 1 6.94e-4,-3.34e-4 1.5006428,1.5006428 0 0 1 0.0767,-0.05703 1.5006428,1.5006428 0 0 1 0.04435,-0.03284 1.5006428,1.5006428 0 0 1 0.0837,-0.05002 1.5006428,1.5006428 0 0 1 0.04502,-0.02618 1.5006428,1.5006428 0 0 1 0.07337,-0.03468 1.5006428,1.5006428 0 0 1 0.06336,-0.02968 1.5006428,1.5006428 0 0 1 0.07287,-0.02535 1.5006428,1.5006428 0 0 1 0.06836,-0.02385 1.5006428,1.5006428 0 0 1 0.06736,-0.01667 1.5006428,1.5006428 0 0 1 0.07837,-0.01901 1.5006428,1.5006428 0 0 1 0.08504,-0.01167 1.5006428,1.5006428 0 0 1 0.0617,-0.0083 1.5006428,1.5006428 0 0 1 0.0016,0 1.5006428,1.5006428 0 0 1 0.0016,-5e-4 l 5.606405,-0.479039 a 3.0576431,2.1846024 76.863 0 1 1.72174,-1.630198 3.0576431,2.1846024 76.863 0 1 0.60392,0.08837 3.0576431,2.1846024 76.863 0 1 1.42178,1.22169 l 2.17478,-0.185581 -6.57648,-20.639341 z m -19.097181,1.26821 a 1.6340333,3.296412 77.916 0 1 2.133914,1.456291 1.6340333,3.296412 77.916 0 1 -3.6579,2.000523 1.6340333,3.296412 77.916 0 1 -2.76285,-1.434281 1.6340333,3.296412 77.916 0 1 3.6579,-2.000857 1.6340333,3.296412 77.916 0 1 0.628602,-0.02168 z m 16.711821,3.92118 a 3.0576431,2.1846024 76.863 0 1 3.4e-4,0 3.0576431,2.1846024 76.863 0 1 0.60359,0.08837 3.0576431,2.1846024 76.863 0 1 2.01953,3.658234 3.0576431,2.1846024 76.863 0 1 -2.43721,2.200276 3.0576431,2.1846024 76.863 0 1 -2.019865,-3.658234 3.0576431,2.1846024 76.863 0 1 1.833785,-2.288647 z m -35.558227,5.696273 7.835356,19.028815 15.712731,6.732887 -7.667951,-20.937302 -15.880136,-4.824567 z m 24.658229,2.906245 a 3.0576431,2.1846024 76.863 0 1 0.603925,0.08804 3.0576431,2.1846024 76.863 0 1 2.019198,3.658234 3.0576431,2.1846024 76.863 0 1 -2.437043,2.200443 3.0576431,2.1846024 76.863 0 1 -2.019532,-3.658234 3.0576431,2.1846024 76.863 0 1 1.833452,-2.288647 z m -12.525866,2.170263 a 3.2437228,1.5229857 59.254 0 1 2.827045,2.514076 3.2437228,1.5229857 59.254 0 1 -0.07086,3.248892 3.2437228,1.5229857 59.254 0 1 -2.986779,-2.4909 3.2437228,1.5229857 59.254 0 1 0.0707,-3.248058 3.2437228,1.5229857 59.254 0 1 0.160068,-0.02401 z m 43.917644,6.704538 -18.69167,1.596851 18.96845,13.32671 L 102.76719,51.866616 83.549285,39.76977 Z m -48.280012,1.610023 a 3.2437228,1.5229857 59.254 0 1 2.827378,2.514077 3.2437228,1.5229857 59.254 0 1 -0.07086,3.248725 3.2437228,1.5229857 59.254 0 1 -2.986779,-2.490733 3.2437228,1.5229857 59.254 0 1 0.07086,-3.248392 3.2437228,1.5229857 59.254 0 1 0.160069,-0.02334 z M 61.510179,42.683018 54.584213,68.392032 73.861805,84.9748 81.723005,56.884432 61.510179,42.683351 Z m 21.173566,1.862131 a 3.6282207,1.4836355 15.267 0 1 3.28358,0.797508 3.6282207,1.4836355 15.267 0 1 1.26838,2.375014 3.6282207,1.4836355 15.267 0 1 -4.8164,-0.530558 3.6282207,1.4836355 15.267 0 1 -1.26888,-2.375016 3.6282207,1.4836355 15.267 0 1 1.53316,-0.266782 z m 22.108645,10.053806 -20.155305,3.008457 -7.80718,27.897948 19.39114,-5.297275 z m -30.314325,1.800772 a 4.3075117,2.5966122 84.277 0 1 0.70664,0.157232 4.3075117,2.5966122 84.277 0 1 2.14642,5.28893 4.3075117,2.5966122 84.277 0 1 -3.0188,2.983445 4.3075117,2.5966122 84.277 0 1 -2.14658,-5.28893 4.3075117,2.5966122 84.277 0 1 2.31232,-3.140677 z m 25.692015,1.940163 a 2.2071121,3.6615684 28.62 0 1 1.27938,0.688629 2.2071121,3.6615684 28.62 0 1 -1.02978,4.741199 2.2071121,3.6615684 28.62 0 1 -3.549355,0.646608 2.2071121,3.6615684 28.62 0 1 1.029612,-4.741029 2.2071121,3.6615684 28.62 0 1 2.270303,-1.335243 z m -11.454245,1.778097 a 2.2071121,3.6615684 28.62 0 1 1.27921,0.688629 2.2071121,3.6615684 28.62 0 1 -1.02977,4.741193 2.2071121,3.6615684 28.62 0 1 -3.54936,0.646444 2.2071121,3.6615684 28.62 0 1 1.02994,-4.741029 2.2071121,3.6615684 28.62 0 1 2.27015,-1.335237 z m -29.011762,2.21845 a 4.3075117,2.5966122 84.277 0 1 0.706969,0.157566 4.3075117,2.5966122 84.277 0 1 2.146253,5.28893 4.3075117,2.5966122 84.277 0 1 -3.01896,2.983611 4.3075117,2.5966122 84.277 0 1 -2.146419,-5.288932 4.3075117,2.5966122 84.277 0 1 2.31199,-3.141346 z m 35.394822,10.149337 a 2.2071121,3.6615684 28.62 0 1 1.27889,0.68863 2.2071121,3.6615684 28.62 0 1 -1.02944,4.74103 2.2071121,3.6615684 28.62 0 1 -3.54936,0.64628 2.2071121,3.6615684 28.62 0 1 1.02961,-4.74103 2.2071121,3.6615684 28.62 0 1 2.2703,-1.33524 z m -11.72702,3.24939 a 2.2071121,3.6615684 28.62 0 1 1.27888,0.68896 2.2071121,3.6615684 28.62 0 1 -1.02944,4.741036 2.2071121,3.6615684 28.62 0 1 -3.54935,0.64595 2.2071121,3.6615684 28.62 0 1 1.02977,-4.741036 2.2071121,3.6615684 28.62 0 1 2.27031,-1.33507 z"
       id="path10"
       style="stroke-width:0.166738" />
    <g
       aria-label="Sagittarius"
       id="text23"
       style="font-style:normal;font-weight:normal;font-size:25.4px;line-height:1.25;font-family:sans-serif;fill:#000000;fill-opacity:1;stroke:none;stroke-width:0.264583"
       transform="translate(34.395833,12.85119)">
      <path
         d="m 94.247186,38.040941 q 0,2.728516 -2.319238,4.440039 -2.306836,1.699121 -6.275586,1.699121 -2.294434,0 -4.005957,-0.396875 -1.699121,-0.409277 -3.187402,-1.029395 v -4.427636 h 0.520898 q 1.475879,1.178222 3.299023,1.810742 1.835547,0.63252 3.522266,0.63252 0.434082,0 1.141016,-0.07442 0.706933,-0.07441 1.153418,-0.248046 0.545703,-0.223243 0.892968,-0.558106 0.359668,-0.334863 0.359668,-0.992187 0,-0.607715 -0.520898,-1.041797 -0.508496,-0.446485 -1.500684,-0.682129 -1.041797,-0.248047 -2.207617,-0.458887 -1.153418,-0.223242 -2.17041,-0.558105 -2.331641,-0.756543 -3.361035,-2.046387 -1.016992,-1.302246 -1.016992,-3.224609 0,-2.579688 2.306836,-4.204395 2.319238,-1.637109 5.953125,-1.637109 1.823144,0 3.596679,0.359668 1.785938,0.347265 3.088184,0.880566 v 4.254004 h -0.508496 q -1.116211,-0.892969 -2.740918,-1.488281 -1.612305,-0.607715 -3.299024,-0.607715 -0.595312,0 -1.190625,0.08682 -0.58291,0.07441 -1.128613,0.297657 -0.483691,0.186035 -0.830957,0.570507 -0.347266,0.372071 -0.347266,0.855762 0,0.731738 0.558106,1.128613 0.558105,0.384473 2.108398,0.706934 1.016993,0.21084 1.947168,0.409277 0.942578,0.198438 2.021582,0.545703 2.120801,0.694532 3.125391,1.897559 1.016992,1.190625 1.016992,3.100586 z"
         style="font-style:normal;font-variant:normal;font-weight:bold;font-stretch:normal;font-size:25.4px;font-family:sans-serif;-inkscape-font-specification:'sans-serif Bold';stroke-width:0.264583"
         id="path25" />
      <path
         d="m 105.69455,40.211351 v -2.902148 q -0.90537,0.07441 -1.95957,0.21084 -1.0542,0.124023 -1.5999,0.297656 -0.66973,0.21084 -1.0294,0.620117 -0.34726,0.396875 -0.34726,1.054199 0,0.434082 0.0744,0.706934 0.0744,0.272851 0.37207,0.520898 0.28525,0.248047 0.68213,0.37207 0.39687,0.111622 1.24023,0.111622 0.66973,0 1.35186,-0.272852 0.69453,-0.272852 1.21543,-0.719336 z m 0,2.158008 q -0.35967,0.272851 -0.89297,0.657324 -0.5333,0.384473 -1.00459,0.607715 -0.65732,0.297656 -1.36426,0.434082 -0.70693,0.148828 -1.55029,0.148828 -1.984375,0 -3.323828,-1.227832 -1.339453,-1.227832 -1.339453,-3.137793 0,-1.525488 0.682129,-2.492871 0.682129,-0.967383 1.934765,-1.525488 1.240237,-0.558106 3.075777,-0.79375 1.83555,-0.235645 3.80752,-0.347266 v -0.07441 q 0,-1.153418 -0.94257,-1.5875 -0.94258,-0.446484 -2.77813,-0.446484 -1.10381,0 -2.356444,0.396875 -1.252637,0.384472 -1.79834,0.595312 h -0.409277 v -3.361035 q 0.706933,-0.186035 2.294433,-0.434082 1.599898,-0.260449 3.199808,-0.260449 3.80752,0 5.49423,1.178223 1.69913,1.16582 1.69913,3.671093 v 9.475391 h -4.42764 z"
         style="font-style:normal;font-variant:normal;font-weight:bold;font-stretch:normal;font-size:25.4px;font-family:sans-serif;-inkscape-font-specification:'sans-serif Bold';stroke-width:0.264583"
         id="path27" />
      <path
         d="m 127.77072,42.245335 q 0,1.959571 -0.5581,3.299024 -0.55811,1.339453 -1.5627,2.095996 -1.00459,0.768945 -2.43086,1.103808 -1.41386,0.347266 -3.1998,0.347266 -1.45108,0 -2.86494,-0.173633 -1.40147,-0.173633 -2.43086,-0.421679 v -3.485059 h 0.5457 q 0.81856,0.322461 1.99678,0.58291 1.17822,0.272852 2.1084,0.272852 1.24023,0 2.00918,-0.235645 0.78134,-0.223242 1.19062,-0.644922 0.38447,-0.396875 0.55811,-1.016992 0.17363,-0.620117 0.17363,-1.488281 v -0.260449 q -0.80615,0.657324 -1.78594,1.041797 -0.97978,0.384472 -2.18281,0.384472 -2.92695,0 -4.51445,-1.761133 -1.5875,-1.761132 -1.5875,-5.357812 0,-1.723926 0.48369,-2.976562 0.48369,-1.252637 1.36426,-2.182813 0.81855,-0.868164 2.00917,-1.351855 1.20303,-0.483692 2.45567,-0.483692 1.12861,0 2.04639,0.272852 0.93017,0.260449 1.68671,0.731738 l 0.16123,-0.620117 h 4.32842 z m -4.46484,-2.790527 v -6.312793 q -0.38447,-0.16123 -0.94258,-0.248047 -0.5581,-0.09922 -1.00459,-0.09922 -1.76113,0 -2.6417,1.016992 -0.88056,1.00459 -0.88056,2.815332 0,2.009179 0.74414,2.802929 0.75654,0.79375 2.23242,0.79375 0.66972,0 1.31465,-0.210839 0.64492,-0.21084 1.17822,-0.558106 z"
         style="font-style:normal;font-variant:normal;font-weight:bold;font-stretch:normal;font-size:25.4px;font-family:sans-serif;-inkscape-font-specification:'sans-serif Bold';stroke-width:0.264583"
         id="path29" />
      <path
         d="m 136.45236,43.845238 h -4.46484 V 29.917406 h 4.46484 z m 0.12403,-15.912207 h -4.7129 v -3.38584 h 4.7129 z"
         style="font-style:normal;font-variant:normal;font-weight:bold;font-stretch:normal;font-size:25.4px;font-family:sans-serif;-inkscape-font-specification:'sans-serif Bold';stroke-width:0.264583"
         id="path31" />
      <path
         d="m 149.57404,43.721214 q -0.71933,0.186035 -1.52549,0.285254 -0.80615,0.111621 -1.97197,0.111621 -2.60449,0 -3.88193,-1.054199 -1.26504,-1.054199 -1.26504,-3.609082 v -6.51123 h -1.83555 v -3.026172 h 1.83555 v -3.981152 h 4.46484 v 3.981152 h 4.17959 v 3.026172 h -4.17959 v 4.936132 q 0,0.731739 0.0124,1.277442 0.0124,0.545703 0.19844,0.979785 0.17363,0.434082 0.60772,0.694531 0.44648,0.248047 1.28984,0.248047 0.34727,0 0.90537,-0.148828 0.57051,-0.148828 0.79375,-0.272852 h 0.37207 z"
         style="font-style:normal;font-variant:normal;font-weight:bold;font-stretch:normal;font-size:25.4px;font-family:sans-serif;-inkscape-font-specification:'sans-serif Bold';stroke-width:0.264583"
         id="path33" />
      <path
         d="m 161.14543,43.721214 q -0.71934,0.186035 -1.52549,0.285254 -0.80615,0.111621 -1.97197,0.111621 -2.60449,0 -3.88193,-1.054199 -1.26504,-1.054199 -1.26504,-3.609082 v -6.51123 h -1.83555 v -3.026172 h 1.83555 v -3.981152 h 4.46484 v 3.981152 h 4.17959 v 3.026172 h -4.17959 v 4.936132 q 0,0.731739 0.0124,1.277442 0.0124,0.545703 0.19844,0.979785 0.17363,0.434082 0.60771,0.694531 0.44649,0.248047 1.28985,0.248047 0.34726,0 0.90537,-0.148828 0.57051,-0.148828 0.79375,-0.272852 h 0.37207 z"
         style="font-style:normal;font-variant:normal;font-weight:bold;font-stretch:normal;font-size:25.4px;font-family:sans-serif;-inkscape-font-specification:'sans-serif Bold';stroke-width:0.264583"
         id="path35" />
      <path
         d="m 172.24553,40.211351 v -2.902148 q -0.90537,0.07441 -1.95957,0.21084 -1.0542,0.124023 -1.5999,0.297656 -0.66973,0.21084 -1.0294,0.620117 -0.34726,0.396875 -0.34726,1.054199 0,0.434082 0.0744,0.706934 0.0744,0.272851 0.37207,0.520898 0.28525,0.248047 0.68213,0.37207 0.39687,0.111622 1.24023,0.111622 0.66973,0 1.35186,-0.272852 0.69453,-0.272852 1.21543,-0.719336 z m 0,2.158008 q -0.35967,0.272851 -0.89297,0.657324 -0.5333,0.384473 -1.00459,0.607715 -0.65732,0.297656 -1.36426,0.434082 -0.70693,0.148828 -1.55029,0.148828 -1.98438,0 -3.32383,-1.227832 -1.33945,-1.227832 -1.33945,-3.137793 0,-1.525488 0.68213,-2.492871 0.68213,-0.967383 1.93476,-1.525488 1.24024,-0.558106 3.07578,-0.79375 1.83555,-0.235645 3.80752,-0.347266 v -0.07441 q 0,-1.153418 -0.94257,-1.5875 -0.94258,-0.446484 -2.77813,-0.446484 -1.10381,0 -2.35644,0.396875 -1.25264,0.384472 -1.79834,0.595312 h -0.40928 v -3.361035 q 0.70693,-0.186035 2.29443,-0.434082 1.5999,-0.260449 3.19981,-0.260449 3.80752,0 5.49423,1.178223 1.69913,1.16582 1.69913,3.671093 v 9.475391 h -4.42764 z"
         style="font-style:normal;font-variant:normal;font-weight:bold;font-stretch:normal;font-size:25.4px;font-family:sans-serif;-inkscape-font-specification:'sans-serif Bold';stroke-width:0.264583"
         id="path37" />
      <path
         d="m 190.87384,34.17141 h -0.39687 q -0.28526,-0.09922 -0.91778,-0.148828 -0.63251,-0.04961 -1.05419,-0.04961 -0.95498,0 -1.68672,0.124024 -0.73174,0.124023 -1.5751,0.421679 v 9.326563 h -4.46484 V 29.917406 h 4.46484 v 2.046387 q 1.47588,-1.265039 2.56728,-1.674317 1.09141,-0.421679 2.00918,-0.421679 0.23565,0 0.5333,0.0124 0.29766,0.0124 0.5209,0.03721 z"
         style="font-style:normal;font-variant:normal;font-weight:bold;font-stretch:normal;font-size:25.4px;font-family:sans-serif;-inkscape-font-specification:'sans-serif Bold';stroke-width:0.264583"
         id="path39" />
      <path
         d="m 197.86877,43.845238 h -4.46485 V 29.917406 h 4.46485 z m 0.12402,-15.912207 h -4.71289 v -3.38584 h 4.71289 z"
         style="font-style:normal;font-variant:normal;font-weight:bold;font-stretch:normal;font-size:25.4px;font-family:sans-serif;-inkscape-font-specification:'sans-serif Bold';stroke-width:0.264583"
         id="path41" />
      <path
         d="m 215.96379,43.845238 h -4.46485 v -1.537891 q -1.24023,0.942578 -2.26963,1.438672 -1.02939,0.483691 -2.45566,0.483691 -2.30684,0 -3.55947,-1.32705 -1.24024,-1.327051 -1.24024,-3.919141 v -9.066113 h 4.48965 v 6.908105 q 0,1.054199 0.062,1.761133 0.0744,0.694531 0.32246,1.153418 0.23565,0.458887 0.70694,0.669727 0.48369,0.210839 1.33945,0.210839 0.57051,0 1.26504,-0.210839 0.69453,-0.21084 1.33945,-0.620118 v -9.872265 h 4.46485 z"
         style="font-style:normal;font-variant:normal;font-weight:bold;font-stretch:normal;font-size:25.4px;font-family:sans-serif;-inkscape-font-specification:'sans-serif Bold';stroke-width:0.264583"
         id="path43" />
      <path
         d="m 232.28528,39.430003 q 0,2.158008 -1.93477,3.485059 -1.93477,1.314648 -5.2958,1.314648 -1.86035,0 -3.37344,-0.347265 -1.51308,-0.347266 -2.43086,-0.768946 v -3.671093 h 0.40928 q 0.33486,0.235644 0.76894,0.520898 0.44649,0.272852 1.25264,0.595313 0.69453,0.285254 1.5751,0.496093 0.88057,0.198438 1.88516,0.198438 1.31464,0 1.94716,-0.285254 0.63252,-0.297656 0.63252,-0.868164 0,-0.508496 -0.37207,-0.731738 -0.37207,-0.235645 -1.41386,-0.446485 -0.4961,-0.111621 -1.35186,-0.235644 -0.84336,-0.136426 -1.53789,-0.322461 -1.89756,-0.496094 -2.81533,-1.537891 -0.91778,-1.054199 -0.91778,-2.616894 0,-2.00918 1.89756,-3.336231 1.90996,-1.339453 5.20899,-1.339453 1.56269,0 2.98896,0.322461 1.43867,0.310059 2.24483,0.669727 v 3.522265 h -0.38448 q -0.99218,-0.682129 -2.26963,-1.103808 -1.26504,-0.434082 -2.56728,-0.434082 -1.079,0 -1.82315,0.297656 -0.73173,0.297656 -0.73173,0.843359 0,0.496094 0.33486,0.756543 0.33486,0.260449 1.5751,0.520899 0.68213,0.136425 1.46347,0.272851 0.79375,0.124024 1.5875,0.322461 1.76114,0.458887 2.6045,1.451074 0.84336,0.979786 0.84336,2.455664 z"
         style="font-style:normal;font-variant:normal;font-weight:bold;font-stretch:normal;font-size:25.4px;font-family:sans-serif;-inkscape-font-specification:'sans-serif Bold';stroke-width:0.264583"
         id="path45" />
    </g>
  </g>
</svg>
